<?xml version="1.0" standalone="no"?>
<!DOCTYPE svg PUBLIC "-//W3C//DTD SVG 20010904//EN"
 "http://www.w3.org/TR/2001/REC-SVG-20010904/DTD/svg10.dtd">
<svg version="1.0" xmlns="http://www.w3.org/2000/svg"
 width="2112.000000pt" height="2016.000000pt" viewBox="0 0 2112.000000 2016.000000"
 preserveAspectRatio="xMidYMid meet">

<g transform="translate(0.000000,2016.000000) scale(0.100000,-0.100000)"
fill="#ffffff" stroke="none">
<path d="M3340 18583 c-339 -31 -510 -76 -768 -201 -246 -118 -546 -368 -718
-597 -169 -225 -307 -525 -369 -800 -58 -259 -54 191 -55 -6685 0 -4283 3
-6371 10 -6445 42 -443 230 -898 505 -1220 301 -353 627 -581 1035 -725 149
-53 265 -80 445 -106 112 -16 586 -17 7030 -16 6409 0 6918 1 7025 17 551 80
1059 361 1426 788 259 302 419 632 506 1047 l33 155 0 6445 c0 7006 4 6520
-57 6770 -55 228 -119 386 -235 582 -207 348 -515 635 -855 797 -214 103 -451
168 -693 191 -75 7 -2378 9 -7170 8 -3883 0 -7076 -3 -7095 -5z m855 -620
c239 1 532 -1 859 -8 135 -3 214 -1 222 6 8 7 90 8 236 5 235 -6 495 -7 868
-4 240 2 506 2 870 -1 375 -3 654 -1 884 4 137 4 222 2 230 -4 7 -6 93 -8 226
-6 319 7 588 7 839 0 158 -5 230 -3 245 5 21 11 72 10 658 -4 138 -4 219 -2
223 4 9 14 428 13 442 -1 8 -8 73 -9 225 -4 254 9 575 9 862 0 149 -4 216 -3
231 5 15 8 84 10 236 5 218 -6 470 -7 864 -3 121 1 315 1 430 -1 116 -1 217 0
226 3 8 4 112 4 230 1 237 -7 530 -6 862 1 120 3 224 1 230 -4 16 -12 434 -15
442 -3 6 11 427 15 438 5 4 -4 102 -6 219 -4 291 5 598 4 878 -2 190 -4 251
-9 320 -26 159 -38 234 -77 188 -95 -7 -3 -3 -6 10 -6 12 -1 22 -6 22 -12 0
-7 12 -10 29 -7 17 2 28 1 26 -2 -2 -4 4 -13 13 -21 34 -29 42 -31 50 -10 7
20 11 19 80 -23 342 -212 591 -606 653 -1037 12 -79 14 -1141 14 -6489 0
-6156 -1 -6398 -18 -6485 -41 -199 -131 -421 -235 -578 l-47 -70 -6 39 c-6 39
-11 27 -13 -31 -1 -41 -25 -75 -115 -168 -103 -107 -227 -204 -363 -285 -175
-105 -301 -157 -453 -187 -180 -36 -282 -44 -567 -45 -238 0 -248 0 -248 19 0
18 -6 19 -77 15 -98 -6 -108 -14 -15 -14 39 0 74 -4 77 -10 4 -6 -301 -10
-870 -10 -846 0 -875 0 -875 18 0 15 -6 18 -27 16 -36 -3 -35 -2 -28 -14 5 -8
11 -8 19 -1 13 11 26 5 26 -11 0 -4 -292 -8 -650 -8 -469 0 -650 3 -650 11 0
6 6 9 14 6 8 -3 17 -1 20 6 3 9 7 9 13 1 5 -7 16 -8 28 -3 21 8 19 9 -45 13
-8 1 -21 5 -27 9 -9 6 -13 1 -13 -17 l0 -26 -4175 0 -4175 0 -1 23 0 22 -9
-23 -10 -23 -842 4 -843 3 -141 27 c-78 14 -184 42 -236 61 -94 34 -238 101
-238 112 0 3 4 2 10 -1 5 -3 18 -1 27 4 17 10 16 11 -2 12 -11 1 -23 1 -27 0
-5 0 -8 3 -8 8 0 9 -46 41 -102 71 -16 9 -26 19 -22 23 4 4 0 7 -9 7 -10 0
-17 5 -17 10 0 6 -8 10 -17 11 -14 0 -14 2 -4 6 9 4 2 10 -20 17 -19 7 -33 17
-32 24 2 7 -2 13 -7 13 -34 4 -59 20 -65 40 -4 11 -10 17 -15 14 -14 -9 1 -37
34 -65 66 -55 78 -69 31 -36 -105 74 -280 258 -271 283 3 8 1 11 -4 8 -5 -3
-25 16 -44 42 -44 60 -117 193 -106 193 15 0 20 44 5 53 -18 10 -20 31 -2 22
6 -4 3 1 -7 9 -11 9 -17 19 -13 22 3 4 2 15 -3 25 -7 12 -6 19 3 22 7 3 5 6
-5 6 -10 1 -17 6 -15 13 1 6 -7 14 -17 16 -17 4 -18 0 -13 -34 l5 -39 -24 50
c-13 28 -36 104 -53 170 -30 126 -47 226 -31 190 10 -23 13 -12 12 50 -1 56 0
55 -17 55 -13 0 -15 29 -13 222 l3 222 25 7 c22 6 22 7 4 8 -20 1 -21 6 -20
66 1 47 4 64 13 61 7 -3 15 -1 18 4 4 6 -3 10 -14 10 -18 0 -19 2 -6 27 8 15
11 30 7 33 -10 7 -9 34 3 43 6 6 6 10 -2 14 -7 2 -13 11 -13 19 0 9 5 12 10 9
6 -3 10 -1 10 4 0 6 -5 11 -11 11 -6 0 -7 5 -2 13 11 17 10 41 -2 49 -6 5 -4
8 5 8 9 0 15 9 15 24 0 13 -2 23 -4 21 -2 -3 -13 1 -24 6 -19 11 -19 18 -13
424 3 227 8 419 11 428 4 8 2 18 -4 22 -13 7 -16 431 -3 438 4 3 5 83 2 179
-5 149 -5 343 1 998 1 69 -2 133 -6 143 -4 11 -5 141 -2 290 4 150 8 340 10
422 2 83 0 155 -5 162 -5 7 -7 112 -5 240 3 125 4 289 4 363 -6 6266 -4 7602
9 7735 14 139 55 317 74 323 6 2 10 17 10 33 0 38 16 69 35 69 8 0 15 5 15 10
0 6 5 10 11 10 5 0 7 -4 4 -10 -3 -5 -2 -10 4 -10 15 0 23 18 11 25 -19 11
-10 23 13 17 20 -5 21 -4 8 11 -12 15 -11 17 5 18 18 0 18 1 -1 9 -18 8 -17
12 2 9 8 -1 43 70 43 88 0 7 4 13 9 13 5 0 7 9 4 20 -4 13 2 27 16 39 22 19
28 41 11 41 -19 0 56 96 140 181 81 81 198 174 230 181 8 2 21 10 28 18 10 11
15 12 18 3 3 -7 10 -13 16 -13 7 0 6 5 -2 14 -9 12 -4 19 29 36 23 11 41 16
41 10 0 -6 -11 -15 -25 -20 -14 -5 -25 -12 -25 -14 0 -7 65 13 96 29 14 7 32
11 39 9 7 -3 16 0 20 6 6 9 9 9 15 0 5 -8 13 -9 21 -4 8 5 20 9 28 9 9 0 16
13 19 35 2 19 8 38 14 41 22 14 223 51 312 59 50 4 199 6 331 4 132 -2 339 -2
460 -1z m-1145 -87 c0 -11 -19 -15 -25 -6 -3 5 1 10 9 10 9 0 16 -2 16 -4z
m-670 -521 c-7 -9 -15 -13 -19 -10 -3 3 1 10 9 15 21 14 24 12 10 -5z m-136
-240 c-4 -8 -8 -15 -10 -15 -2 0 -4 7 -4 15 0 8 4 15 10 15 5 0 7 -7 4 -15z"/>
<path d="M17940 17789 c0 -5 5 -7 10 -4 6 3 10 8 10 11 0 2 -4 4 -10 4 -5 0
-10 -5 -10 -11z"/>
<path d="M18450 17391 c0 -5 5 -13 10 -16 6 -3 10 -2 10 4 0 5 -4 13 -10 16
-5 3 -10 2 -10 -4z"/>
<path d="M16935 17344 c-258 -41 -493 -186 -660 -409 -286 -381 -251 -914 82
-1276 152 -164 344 -263 593 -305 491 -82 985 246 1117 741 22 85 26 121 27
245 1 195 -23 297 -109 470 -115 231 -343 418 -615 505 -75 24 -103 27 -245
30 -88 2 -173 1 -190 -1z m-25 -361 c41 -28 49 -45 50 -100 0 -41 -5 -58 -26
-82 -74 -89 -224 -43 -224 69 0 42 23 94 51 114 32 22 117 21 149 -1z m673
-318 c77 -31 76 -26 25 -131 l-29 -60 -52 25 c-42 21 -66 26 -129 26 -66 0
-81 -3 -99 -21 -28 -28 -18 -61 25 -79 18 -8 71 -20 118 -29 101 -17 153 -41
196 -90 91 -104 27 -278 -125 -342 -91 -39 -282 -25 -386 27 -69 35 -68 33
-41 107 14 37 29 71 33 75 4 4 43 -7 87 -24 131 -52 254 -42 254 21 0 31 -34
48 -130 68 -173 35 -246 91 -257 195 -7 66 9 117 49 162 69 79 149 106 293
101 81 -3 113 -9 168 -31z m-642 -152 c0 -98 1 -275 2 -393 2 -184 -1 -223
-16 -267 -21 -60 -74 -114 -133 -134 -52 -18 -170 -16 -217 4 -34 15 -38 20
-33 44 3 16 8 53 12 84 l6 57 61 -5 c109 -8 102 -37 99 406 l-2 381 110 0 110
0 1 -177z"/>
<path d="M18620 17085 c0 -3 9 -15 20 -27 22 -24 26 -18 10 13 -10 17 -30 27
-30 14z"/>
<path d="M11680 15026 l0 -283 -100 -12 c-447 -50 -826 -252 -1095 -581 -106
-129 -145 -187 -212 -315 -74 -142 -108 -232 -149 -396 -30 -120 -37 -171 -43
-304 -5 -88 -8 -1061 -7 -2163 1 -1101 -1 -2002 -4 -2002 -3 0 -26 21 -50 46
-79 81 -208 174 -303 219 -225 107 -399 142 -652 132 -208 -8 -338 -37 -509
-115 -225 -101 -359 -204 -520 -397 -234 -282 -397 -679 -448 -1095 -8 -66
-13 -217 -13 -405 1 -264 4 -316 23 -430 79 -457 225 -771 487 -1043 164 -171
287 -258 480 -341 301 -128 689 -147 980 -48 166 57 356 178 474 302 40 42 74
75 76 73 2 -1 4 -77 6 -168 1 -91 7 -171 12 -177 7 -10 89 -13 348 -13 l339 0
0 3788 c0 2547 3 3823 10 3897 29 303 206 585 465 741 76 46 245 102 333 110
l72 7 0 -267 c0 -146 3 -266 8 -266 4 0 14 8 23 18 25 30 1116 847 1147 859 6
3 12 10 11 17 0 6 -71 64 -157 128 -86 64 -305 230 -487 368 -181 138 -374
285 -428 326 -54 40 -103 74 -108 74 -5 0 -9 -116 -9 -284z m-2285 -6347 c227
-70 404 -224 531 -464 138 -259 202 -614 176 -967 -15 -188 -36 -292 -98 -480
-112 -337 -324 -553 -618 -628 -189 -48 -436 -15 -589 78 -270 165 -412 407
-491 842 -54 289 -35 616 50 898 111 364 340 633 608 713 144 43 308 46 431 8z"/>
<path d="M4835 14758 c-5 -16 -44 -231 -91 -502 -19 -110 -36 -202 -39 -204
-2 -3 -152 -6 -332 -8 -180 -1 -331 -3 -336 -3 -4 -1 -6 -110 -5 -243 l3 -243
280 -2 280 -2 -3 -47 c-2 -47 -78 -522 -88 -556 -5 -17 -29 -18 -322 -18
l-318 0 1 -247 0 -248 268 1 c147 1 269 -2 272 -6 3 -4 -9 -72 -25 -151 -32
-158 -100 -521 -100 -538 0 -7 89 -10 273 -9 l274 1 51 286 c28 157 54 306 57
331 13 96 -12 86 217 85 112 -1 258 -2 324 -3 l122 -2 -10 -42 c-5 -24 -29
-160 -53 -303 -24 -143 -48 -279 -53 -303 -8 -33 -7 -44 3 -48 7 -3 113 -3
236 0 123 3 240 5 260 5 l35 1 11 68 c7 37 25 141 41 232 17 91 38 211 47 267
10 56 21 106 25 113 5 8 101 13 330 16 178 2 324 5 326 6 2 3 7 384 5 446 l-1
42 -285 0 c-221 0 -285 3 -285 13 0 6 5 32 11 56 11 47 99 531 99 543 0 4 147
9 328 10 l327 3 3 243 2 242 -286 0 -287 0 6 33 c3 17 17 93 31 167 29 157 86
495 86 510 0 6 -96 10 -269 10 l-269 0 -11 -72 c-6 -40 -33 -201 -59 -358
l-49 -285 -321 0 -322 0 0 25 c0 14 9 72 20 130 21 113 76 423 90 505 4 28 6
52 3 55 -2 3 -121 6 -264 8 -207 3 -260 1 -264 -10z m955 -1228 c0 -23 -31
-202 -87 -507 l-17 -93 -318 0 c-270 0 -318 2 -318 14 0 8 6 45 14 83 8 37 16
82 19 98 2 17 19 119 37 227 l33 198 296 2 c163 2 306 4 319 4 18 1 22 -4 22
-26z"/>
<path d="M13090 14701 c0 -5 6 -11 13 -14 6 -3 53 -38 102 -78 50 -41 123
-100 163 -133 40 -32 72 -60 72 -62 0 -3 -243 -199 -344 -277 l-28 -22 608 0
609 0 -3 -415 c-3 -562 10 -1014 33 -1100 23 -86 72 -192 126 -271 109 -161
226 -246 442 -322 l92 -32 706 -3 706 -3 6 -122 c3 -67 4 -1290 3 -2717 -3
-2345 -5 -2601 -19 -2662 -25 -101 -53 -152 -118 -212 -73 -68 -143 -101 -239
-114 -49 -7 -896 -10 -2412 -9 l-2338 2 0 -313 0 -312 2453 2 c2324 3 2455 4
2512 21 97 29 216 80 300 127 202 116 371 344 442 596 l28 99 3 2970 c2 2203
0 2987 -8 3037 -16 93 -63 165 -195 300 -415 425 -1043 1068 -1395 1428 -542
555 -541 555 -603 590 l-52 30 -832 0 c-482 0 -833 -4 -833 -9z m2480 -1649
c245 -249 445 -458 445 -465 0 -9 -106 -13 -445 -15 -491 -2 -518 0 -584 59
-20 17 -49 58 -66 91 l-30 61 0 481 0 481 118 -120 c65 -66 318 -324 562 -573z"/>
<path d="M5365 10930 c-244 -27 -505 -158 -696 -349 -56 -56 -100 -93 -103
-86 -2 7 -5 97 -6 201 0 103 -2 189 -3 190 -1 1 -163 4 -361 6 l-359 3 0
-1815 0 -1815 376 -3 377 -2 0 1032 c0 610 4 1072 10 1128 28 265 118 459 288
622 85 81 168 130 277 164 82 25 299 26 365 0 77 -29 175 -93 237 -154 92 -90
180 -288 215 -479 9 -51 11 -345 9 -1190 l-2 -1123 381 0 380 0 0 858 c-1
1165 2 1282 29 1410 43 206 122 364 244 490 76 79 185 148 287 182 88 30 287
33 370 6 99 -33 168 -76 238 -150 101 -107 165 -242 207 -438 9 -43 20 -78 25
-78 4 0 84 36 176 81 277 133 355 170 444 210 83 38 85 39 82 71 -5 66 -65
256 -112 355 -67 142 -136 237 -250 346 -242 233 -492 327 -866 327 -369 0
-622 -102 -908 -365 -48 -44 -105 -104 -127 -132 -22 -29 -46 -53 -53 -53 -8
0 -37 35 -64 78 -52 80 -194 226 -272 279 -75 51 -219 119 -320 151 -146 47
-331 62 -515 42z"/>
<path d="M4486 6683 l-169 -3 7 -138 c5 -115 9 -370 7 -394 -1 -4 -11 -3 -23
1 -13 5 -117 48 -233 95 -154 63 -211 82 -217 73 -4 -6 -15 -32 -25 -57 -9
-25 -38 -99 -64 -165 -25 -66 -44 -123 -40 -127 5 -6 233 -96 409 -163 66 -25
72 -29 60 -45 -7 -10 -42 -55 -78 -100 -73 -93 -118 -154 -184 -250 l-45 -65
27 -23 c60 -49 274 -195 290 -196 10 -1 32 23 57 61 22 34 85 132 140 217 55
86 103 156 107 156 4 0 50 -65 103 -145 100 -153 202 -295 211 -295 3 0 69 45
146 101 77 55 147 103 154 106 8 3 14 8 14 12 0 3 -56 83 -125 176 -69 94
-141 192 -160 218 l-35 48 37 16 c73 30 417 153 430 153 7 0 13 7 13 15 0 13
-118 356 -125 364 -4 4 -373 -143 -427 -170 -21 -11 -40 -19 -43 -19 -4 0 -6
116 -5 258 3 320 5 292 -22 290 -13 -1 -99 -4 -192 -5z"/>
<path d="M6180 6415 c0 -146 -3 -265 -8 -265 -9 0 -400 163 -431 179 -18 10
-22 8 -35 -17 -18 -34 -136 -335 -133 -338 4 -3 382 -152 432 -170 28 -9 51
-19 53 -20 2 -1 -24 -40 -58 -86 -171 -231 -262 -362 -254 -365 8 -3 83 -55
276 -189 32 -23 40 -25 54 -13 14 12 134 190 243 362 24 37 45 67 47 67 1 0
69 -99 150 -220 81 -121 151 -220 157 -220 5 0 48 28 96 63 47 34 97 70 111
79 14 8 43 31 64 50 l39 34 -71 100 c-99 138 -188 260 -218 300 l-26 34 23 9
c13 5 98 36 189 69 136 50 266 100 277 107 4 3 -119 349 -127 358 -7 8 -119
-33 -345 -128 -60 -25 -114 -47 -120 -48 -6 -1 -10 92 -10 266 l0 267 -187 0
-188 0 0 -265z"/>
<path d="M2124 4480 c0 -13 4 -16 10 -10 7 7 7 13 0 20 -6 6 -10 3 -10 -10z"/>
<path d="M2125 4441 c-3 -5 -2 -12 3 -15 5 -3 9 1 9 9 0 17 -3 19 -12 6z"/>
<path d="M18746 3900 c1 -56 10 -60 12 -5 1 25 -1 45 -5 45 -5 0 -8 -18 -7
-40z"/>
<path d="M2307 3290 c3 -11 11 -20 18 -20 8 0 11 8 8 20 -3 11 -11 20 -18 20
-8 0 -11 -8 -8 -20z"/>
<path d="M2325 3250 c3 -5 11 -10 16 -10 6 0 7 5 4 10 -3 6 -11 10 -16 10 -6
0 -7 -4 -4 -10z"/>
<path d="M2406 3127 c3 -10 9 -15 12 -12 3 3 0 11 -7 18 -10 9 -11 8 -5 -6z"/>
<path d="M18426 3085 c-3 -8 -1 -15 4 -15 6 0 10 7 10 15 0 8 -2 15 -4 15 -2
0 -6 -7 -10 -15z"/>
<path d="M18009 2711 c-3 -8 -16 -15 -30 -16 -13 -1 -24 -8 -24 -16 0 -8 -7
-14 -15 -14 -8 0 -18 -4 -22 -10 -5 -6 -8 -4 -8 5 -1 12 -3 11 -11 -2 -6 -11
-23 -18 -42 -19 l-32 -1 37 -10 c32 -8 44 -6 88 18 57 31 74 48 68 66 -4 10
-6 10 -9 -1z"/>
<path d="M5731 2444 c0 -11 3 -14 6 -6 3 7 2 16 -1 19 -3 4 -6 -2 -5 -13z"/>
<path d="M7833 2446 c-3 -5 8 -7 26 -4 17 2 31 1 31 -3 0 -5 7 -6 15 -3 27 11
16 19 -26 19 -22 0 -43 -4 -46 -9z"/>
<path d="M11420 2450 c-13 -8 -12 -10 3 -10 9 0 17 5 17 10 0 12 -1 12 -20 0z"/>
<path d="M17150 2449 c0 -11 27 -12 34 -1 2 4 -4 9 -15 9 -10 1 -19 -2 -19 -8z"/>
<path d="M6998 2443 c7 -3 16 -2 19 1 4 3 -2 6 -13 5 -11 0 -14 -3 -6 -6z"/>
<path d="M13770 2442 c0 -4 9 -8 20 -9 11 -1 18 2 15 8 -7 11 -35 12 -35 1z"/>
</g>
</svg>
